<mxfile host="Electron" modified="2025-04-24T12:10:00.000Z" agent="Gemini modification based on user request and fixing XML error" etag="TWpo8GW91ihSiNSxjHMn_mod3" version="24.2.5" type="device">
  <diagram name="Strona-1" id="lUTXOxhuHCzK44mU2fuL">
    <mxGraphModel dx="1098" dy="828" grid="1" gridSize="10" guides="1" tooltips="1" connect="1" arrows="1" fold="1" page="1" pageScale="1" pageWidth="827" pageHeight="1169" math="0" shadow="0">
      <root>
        <mxCell id="0" />
        <mxCell id="1" parent="0" />
        <mxCell id="wdXZIc1yJ1iBE2bjXRa4-1" value="" style="group;rotation=0;" vertex="1" connectable="0" parent="1">
          <mxGeometry y="400" width="915" height="60" as="geometry" />
        </mxCell>
        <mxCell id="wdXZIc1yJ1iBE2bjXRa4-2" value="" style="rounded=1;whiteSpace=wrap;html=1;autosize=1;rotation=0;" vertex="1" parent="wdXZIc1yJ1iBE2bjXRa4-1">
          <mxGeometry y="1" width="910" height="60" as="geometry" />
        </mxCell>
        <mxCell id="wdXZIc1yJ1iBE2bjXRa4-3" value="1" style="rounded=0;whiteSpace=wrap;html=1;autosize=1;rotation=0;" vertex="1" parent="wdXZIc1yJ1iBE2bjXRa4-1">
          <mxGeometry x="20" y="7" width="20" height="20" as="geometry" />
        </mxCell>
        <mxCell id="wdXZIc1yJ1iBE2bjXRa4-4" value="2" style="rounded=0;whiteSpace=wrap;html=1;autosize=1;rotation=0;" vertex="1" parent="wdXZIc1yJ1iBE2bjXRa4-1">
          <mxGeometry x="20" y="35" width="20" height="20" as="geometry" />
        </mxCell>
        <mxCell id="wdXZIc1yJ1iBE2bjXRa4-5" value="3" style="rounded=0;whiteSpace=wrap;html=1;autosize=1;rotation=0;" vertex="1" parent="wdXZIc1yJ1iBE2bjXRa4-1">
          <mxGeometry x="50" y="7" width="20" height="20" as="geometry" />
        </mxCell>
        <mxCell id="wdXZIc1yJ1iBE2bjXRa4-6" value="4" style="rounded=0;whiteSpace=wrap;html=1;autosize=1;rotation=0;" vertex="1" parent="wdXZIc1yJ1iBE2bjXRa4-1">
          <mxGeometry x="50" y="35" width="20" height="20" as="geometry" />
        </mxCell>
        <mxCell id="wdXZIc1yJ1iBE2bjXRa4-7" value="5" style="rounded=0;whiteSpace=wrap;html=1;autosize=1;rotation=0;" vertex="1" parent="wdXZIc1yJ1iBE2bjXRa4-1">
          <mxGeometry x="80" y="7" width="20" height="20" as="geometry" />
        </mxCell>
        <mxCell id="wdXZIc1yJ1iBE2bjXRa4-8" value="6" style="rounded=0;whiteSpace=wrap;html=1;autosize=1;rotation=0;" vertex="1" parent="wdXZIc1yJ1iBE2bjXRa4-1">
          <mxGeometry x="80" y="35" width="20" height="20" as="geometry" />
        </mxCell>
        <mxCell id="wdXZIc1yJ1iBE2bjXRa4-9" value="7" style="rounded=0;whiteSpace=wrap;html=1;autosize=1;rotation=0;" vertex="1" parent="wdXZIc1yJ1iBE2bjXRa4-1">
          <mxGeometry x="110" y="7" width="20" height="20" as="geometry" />
        </mxCell>
        <mxCell id="wdXZIc1yJ1iBE2bjXRa4-10" value="8" style="rounded=0;whiteSpace=wrap;html=1;autosize=1;rotation=0;" vertex="1" parent="wdXZIc1yJ1iBE2bjXRa4-1">
          <mxGeometry x="110" y="35" width="20" height="20" as="geometry" />
        </mxCell>
        <mxCell id="wdXZIc1yJ1iBE2bjXRa4-13" value="9" style="rounded=0;whiteSpace=wrap;html=1;autosize=1;rotation=0;" vertex="1" parent="wdXZIc1yJ1iBE2bjXRa4-1">
          <mxGeometry x="150" y="7" width="20" height="20" as="geometry" />
        </mxCell>
        <mxCell id="wdXZIc1yJ1iBE2bjXRa4-18" value="10" style="rounded=0;whiteSpace=wrap;html=1;autosize=1;rotation=0;" vertex="1" parent="wdXZIc1yJ1iBE2bjXRa4-1">
          <mxGeometry x="150" y="35" width="20" height="20" as="geometry" />
        </mxCell>
        <mxCell id="wdXZIc1yJ1iBE2bjXRa4-14" value="11" style="rounded=0;whiteSpace=wrap;html=1;autosize=1;rotation=0;" vertex="1" parent="wdXZIc1yJ1iBE2bjXRa4-1">
          <mxGeometry x="180" y="7" width="20" height="20" as="geometry" />
        </mxCell>
        <mxCell id="wdXZIc1yJ1iBE2bjXRa4-17" value="12" style="rounded=0;whiteSpace=wrap;html=1;autosize=1;rotation=0;" vertex="1" parent="wdXZIc1yJ1iBE2bjXRa4-1">
          <mxGeometry x="180" y="35" width="20" height="20" as="geometry" />
        </mxCell>
        <mxCell id="wdXZIc1yJ1iBE2bjXRa4-15" value="13" style="rounded=0;whiteSpace=wrap;html=1;autosize=1;rotation=0;" vertex="1" parent="wdXZIc1yJ1iBE2bjXRa4-1">
          <mxGeometry x="210" y="7" width="20" height="20" as="geometry" />
        </mxCell>
        <mxCell id="wdXZIc1yJ1iBE2bjXRa4-16" value="14" style="rounded=0;whiteSpace=wrap;html=1;autosize=1;rotation=0;" vertex="1" parent="wdXZIc1yJ1iBE2bjXRa4-1">
          <mxGeometry x="210" y="35" width="20" height="20" as="geometry" />
        </mxCell>
        <mxCell id="wdXZIc1yJ1iBE2bjXRa4-11" value="15" style="rounded=0;whiteSpace=wrap;html=1;autosize=1;rotation=0;" vertex="1" parent="wdXZIc1yJ1iBE2bjXRa4-1">
          <mxGeometry x="240" y="7" width="20" height="20" as="geometry" />
        </mxCell>
        <mxCell id="wdXZIc1yJ1iBE2bjXRa4-12" value="16" style="rounded=0;whiteSpace=wrap;html=1;autosize=1;rotation=0;" vertex="1" parent="wdXZIc1yJ1iBE2bjXRa4-1">
          <mxGeometry x="240" y="35" width="20" height="20" as="geometry" />
        </mxCell>
        <mxCell id="wdXZIc1yJ1iBE2bjXRa4-21" value="17" style="rounded=0;whiteSpace=wrap;html=1;autosize=1;rotation=0;" vertex="1" parent="wdXZIc1yJ1iBE2bjXRa4-1">
          <mxGeometry x="280" y="7" width="20" height="20" as="geometry" />
        </mxCell>
        <mxCell id="wdXZIc1yJ1iBE2bjXRa4-26" value="18" style="rounded=0;whiteSpace=wrap;html=1;autosize=1;rotation=0;" vertex="1" parent="wdXZIc1yJ1iBE2bjXRa4-1">
          <mxGeometry x="280" y="35" width="20" height="20" as="geometry" />
        </mxCell>
        <mxCell id="wdXZIc1yJ1iBE2bjXRa4-22" value="19" style="rounded=0;whiteSpace=wrap;html=1;autosize=1;rotation=0;" vertex="1" parent="wdXZIc1yJ1iBE2bjXRa4-1">
          <mxGeometry x="310" y="7" width="20" height="20" as="geometry" />
        </mxCell>
        <mxCell id="wdXZIc1yJ1iBE2bjXRa4-25" value="20" style="rounded=0;whiteSpace=wrap;html=1;autosize=1;rotation=0;" vertex="1" parent="wdXZIc1yJ1iBE2bjXRa4-1">
          <mxGeometry x="310" y="35" width="20" height="20" as="geometry" />
        </mxCell>
        <mxCell id="wdXZIc1yJ1iBE2bjXRa4-23" value="21" style="rounded=0;whiteSpace=wrap;html=1;autosize=1;rotation=0;" vertex="1" parent="wdXZIc1yJ1iBE2bjXRa4-1">
          <mxGeometry x="340" y="7" width="20" height="20" as="geometry" />
        </mxCell>
        <mxCell id="wdXZIc1yJ1iBE2bjXRa4-24" value="22" style="rounded=0;whiteSpace=wrap;html=1;autosize=1;rotation=0;" vertex="1" parent="wdXZIc1yJ1iBE2bjXRa4-1">
          <mxGeometry x="340" y="35" width="20" height="20" as="geometry" />
        </mxCell>
        <mxCell id="wdXZIc1yJ1iBE2bjXRa4-19" value="23" style="rounded=0;whiteSpace=wrap;html=1;autosize=1;rotation=0;" vertex="1" parent="wdXZIc1yJ1iBE2bjXRa4-1">
          <mxGeometry x="370" y="7" width="20" height="20" as="geometry" />
        </mxCell>
        <mxCell id="wdXZIc1yJ1iBE2bjXRa4-20" value="24" style="rounded=0;whiteSpace=wrap;html=1;autosize=1;rotation=0;" vertex="1" parent="wdXZIc1yJ1iBE2bjXRa4-1">
          <mxGeometry x="370" y="35" width="20" height="20" as="geometry" />
        </mxCell>
        <mxCell id="wdXZIc1yJ1iBE2bjXRa4-29" value="25" style="rounded=0;whiteSpace=wrap;html=1;autosize=1;rotation=0;" vertex="1" parent="wdXZIc1yJ1iBE2bjXRa4-1">
          <mxGeometry x="410" y="7" width="20" height="20" as="geometry" />
        </mxCell>
        <mxCell id="wdXZIc1yJ1iBE2bjXRa4-34" value="26" style="rounded=0;whiteSpace=wrap;html=1;autosize=1;rotation=0;" vertex="1" parent="wdXZIc1yJ1iBE2bjXRa4-1">
          <mxGeometry x="410" y="35" width="20" height="20" as="geometry" />
        </mxCell>
        <mxCell id="wdXZIc1yJ1iBE2bjXRa4-30" value="27" style="rounded=0;whiteSpace=wrap;html=1;autosize=1;rotation=0;" vertex="1" parent="wdXZIc1yJ1iBE2bjXRa4-1">
          <mxGeometry x="440" y="7" width="20" height="20" as="geometry" />
        </mxCell>
        <mxCell id="wdXZIc1yJ1iBE2bjXRa4-33" value="28" style="rounded=0;whiteSpace=wrap;html=1;autosize=1;rotation=0;" vertex="1" parent="wdXZIc1yJ1iBE2bjXRa4-1">
          <mxGeometry x="440" y="35" width="20" height="20" as="geometry" />
        </mxCell>
        <mxCell id="wdXZIc1yJ1iBE2bjXRa4-31" value="29" style="rounded=0;whiteSpace=wrap;html=1;autosize=1;rotation=0;" vertex="1" parent="wdXZIc1yJ1iBE2bjXRa4-1">
          <mxGeometry x="470" y="6" width="20" height="20" as="geometry" />
        </mxCell>
        <mxCell id="wdXZIc1yJ1iBE2bjXRa4-32" value="30" style="rounded=0;whiteSpace=wrap;html=1;autosize=1;rotation=0;" vertex="1" parent="wdXZIc1yJ1iBE2bjXRa4-1">
          <mxGeometry x="470" y="35" width="20" height="20" as="geometry" />
        </mxCell>
        <mxCell id="wdXZIc1yJ1iBE2bjXRa4-27" value="31" style="rounded=0;whiteSpace=wrap;html=1;autosize=1;rotation=0;" vertex="1" parent="wdXZIc1yJ1iBE2bjXRa4-1">
          <mxGeometry x="500" y="6" width="20" height="20" as="geometry" />
        </mxCell>
        <mxCell id="wdXZIc1yJ1iBE2bjXRa4-28" value="32" style="rounded=0;whiteSpace=wrap;html=1;autosize=1;rotation=0;" vertex="1" parent="wdXZIc1yJ1iBE2bjXRa4-1">
          <mxGeometry x="500" y="34" width="20" height="20" as="geometry" />
        </mxCell>
        <mxCell id="wdXZIc1yJ1iBE2bjXRa4-35" value="33" style="rounded=0;whiteSpace=wrap;html=1;autosize=1;rotation=0;" vertex="1" parent="wdXZIc1yJ1iBE2bjXRa4-1">
          <mxGeometry x="540" y="6" width="20" height="20" as="geometry" />
        </mxCell>
        <mxCell id="wdXZIc1yJ1iBE2bjXRa4-42" value="34" style="rounded=0;whiteSpace=wrap;html=1;autosize=1;rotation=0;" vertex="1" parent="wdXZIc1yJ1iBE2bjXRa4-1">
          <mxGeometry x="540" y="34" width="20" height="20" as="geometry" />
        </mxCell>
        <mxCell id="wdXZIc1yJ1iBE2bjXRa4-36" value="35" style="rounded=0;whiteSpace=wrap;html=1;autosize=1;rotation=0;" vertex="1" parent="wdXZIc1yJ1iBE2bjXRa4-1">
          <mxGeometry x="570" y="6" width="20" height="20" as="geometry" />
        </mxCell>
        <mxCell id="wdXZIc1yJ1iBE2bjXRa4-41" value="36" style="rounded=0;whiteSpace=wrap;html=1;autosize=1;rotation=0;" vertex="1" parent="wdXZIc1yJ1iBE2bjXRa4-1">
          <mxGeometry x="570" y="34" width="20" height="20" as="geometry" />
        </mxCell>
        <mxCell id="wdXZIc1yJ1iBE2bjXRa4-37" value="37" style="rounded=0;whiteSpace=wrap;html=1;autosize=1;rotation=0;" vertex="1" parent="wdXZIc1yJ1iBE2bjXRa4-1">
          <mxGeometry x="600" y="6" width="20" height="20" as="geometry" />
        </mxCell>
        <mxCell id="wdXZIc1yJ1iBE2bjXRa4-40" value="38" style="rounded=0;whiteSpace=wrap;html=1;autosize=1;rotation=0;" vertex="1" parent="wdXZIc1yJ1iBE2bjXRa4-1">
          <mxGeometry x="600" y="34" width="20" height="20" as="geometry" />
        </mxCell>
        <mxCell id="wdXZIc1yJ1iBE2bjXRa4-38" value="39" style="rounded=0;whiteSpace=wrap;html=1;autosize=1;rotation=0;" vertex="1" parent="wdXZIc1yJ1iBE2bjXRa4-1">
          <mxGeometry x="630" y="6" width="20" height="20" as="geometry" />
        </mxCell>
        <mxCell id="wdXZIc1yJ1iBE2bjXRa4-39" value="40" style="rounded=0;whiteSpace=wrap;html=1;autosize=1;rotation=0;" vertex="1" parent="wdXZIc1yJ1iBE2bjXRa4-1">
          <mxGeometry x="630" y="34" width="20" height="20" as="geometry" />
        </mxCell>
        <mxCell id="wdXZIc1yJ1iBE2bjXRa4-43" value="41" style="rounded=0;whiteSpace=wrap;html=1;autosize=1;rotation=0;" vertex="1" parent="wdXZIc1yJ1iBE2bjXRa4-1">
          <mxGeometry x="670" y="6" width="20" height="20" as="geometry" />
        </mxCell>
        <mxCell id="wdXZIc1yJ1iBE2bjXRa4-44" value="42" style="rounded=0;whiteSpace=wrap;html=1;autosize=1;rotation=0;" vertex="1" parent="wdXZIc1yJ1iBE2bjXRa4-1">
          <mxGeometry x="670" y="34" width="20" height="20" as="geometry" />
        </mxCell>
        <mxCell id="wdXZIc1yJ1iBE2bjXRa4-45" value="43" style="rounded=0;whiteSpace=wrap;html=1;autosize=1;rotation=0;" vertex="1" parent="wdXZIc1yJ1iBE2bjXRa4-1">
          <mxGeometry x="700" y="6" width="20" height="20" as="geometry" />
        </mxCell>
        <mxCell id="wdXZIc1yJ1iBE2bjXRa4-46" value="44" style="rounded=0;whiteSpace=wrap;html=1;autosize=1;rotation=0;" vertex="1" parent="wdXZIc1yJ1iBE2bjXRa4-1">
          <mxGeometry x="700" y="34" width="20" height="20" as="geometry" />
        </mxCell>
        <mxCell id="wdXZIc1yJ1iBE2bjXRa4-47" value="45" style="rounded=0;whiteSpace=wrap;html=1;autosize=1;rotation=0;" vertex="1" parent="wdXZIc1yJ1iBE2bjXRa4-1">
          <mxGeometry x="730" y="6" width="20" height="20" as="geometry" />
        </mxCell>
        <mxCell id="wdXZIc1yJ1iBE2bjXRa4-48" value="46" style="rounded=0;whiteSpace=wrap;html=1;autosize=1;rotation=0;" vertex="1" parent="wdXZIc1yJ1iBE2bjXRa4-1">
          <mxGeometry x="730" y="34" width="20" height="20" as="geometry" />
        </mxCell>
        <mxCell id="wdXZIc1yJ1iBE2bjXRa4-49" value="47" style="rounded=0;whiteSpace=wrap;html=1;autosize=1;rotation=0;" vertex="1" parent="wdXZIc1yJ1iBE2bjXRa4-1">
          <mxGeometry x="760" y="6" width="20" height="20" as="geometry" />
        </mxCell>
        <mxCell id="wdXZIc1yJ1iBE2bjXRa4-50" value="48" style="rounded=0;whiteSpace=wrap;html=1;autosize=1;rotation=0;" vertex="1" parent="wdXZIc1yJ1iBE2bjXRa4-1">
          <mxGeometry x="760" y="34" width="20" height="20" as="geometry" />
        </mxCell>
        <mxCell id="wdXZIc1yJ1iBE2bjXRa4-51" value="49" style="rounded=0;whiteSpace=wrap;html=1;autosize=1;rotation=0;" vertex="1" parent="wdXZIc1yJ1iBE2bjXRa4-1">
          <mxGeometry x="790" y="6" width="20" height="20" as="geometry" />
        </mxCell>
        <mxCell id="wdXZIc1yJ1iBE2bjXRa4-52" value="50" style="rounded=0;whiteSpace=wrap;html=1;autosize=1;rotation=0;" vertex="1" parent="wdXZIc1yJ1iBE2bjXRa4-1">
          <mxGeometry x="790" y="34" width="20" height="20" as="geometry" />
        </mxCell>
        <mxCell id="wdXZIc1yJ1iBE2bjXRa4-53" value="51" style="rounded=0;whiteSpace=wrap;html=1;autosize=1;rotation=0;" vertex="1" parent="wdXZIc1yJ1iBE2bjXRa4-1">
          <mxGeometry x="820" y="6" width="20" height="20" as="geometry" />
        </mxCell>
        <mxCell id="wdXZIc1yJ1iBE2bjXRa4-54" value="52" style="rounded=0;whiteSpace=wrap;html=1;autosize=1;rotation=0;" vertex="1" parent="wdXZIc1yJ1iBE2bjXRa4-1">
          <mxGeometry x="820" y="34" width="20" height="20" as="geometry" />
        </mxCell>
        <mxCell id="wdXZIc1yJ1iBE2bjXRa4-55" value="mgmt0" style="rounded=0;whiteSpace=wrap;html=1;autosize=1;rotation=0;" vertex="1" parent="wdXZIc1yJ1iBE2bjXRa4-1">
          <mxGeometry x="870" y="20" width="30" height="20" as="geometry" />
        </mxCell>
        </root>
    </mxGraphModel>
  </diagram>
</mxfile>
